<?xml version="1.0" standalone="no"?>
<!DOCTYPE svg PUBLIC "-//W3C//DTD SVG 20010904//EN"
 "http://www.w3.org/TR/2001/REC-SVG-20010904/DTD/svg10.dtd">
<svg version="1.0" xmlns="http://www.w3.org/2000/svg"
 width="260.000000pt" height="260.000000pt" viewBox="0 0 260.000000 260.000000"
 preserveAspectRatio="xMidYMid meet">
<metadata>
Created by potrace 1.11, written by Peter Selinger 2001-2013
</metadata>
<g transform="translate(0.000000,260.000000) scale(0.100000,-0.100000)"
fill="#000000" stroke="none">
<path d="M1393 2282 c-18 -2 -33 -8 -33 -14 0 -6 13 -8 35 -4 42 8 73 -5 35
-15 l-25 -6 25 -11 c14 -6 19 -11 13 -11 -19 -1 -16 -21 3 -21 9 0 14 -6 11
-12 -4 -14 -81 -17 -160 -5 -35 5 -66 2 -110 -12 -34 -10 -93 -28 -132 -39
-38 -11 -60 -21 -47 -21 28 -1 28 -18 0 -48 -19 -21 -20 -26 -8 -34 8 -5 31
-7 50 -4 99 16 108 17 115 4 9 -14 -37 -59 -61 -59 -8 0 -14 -4 -14 -10 0 -5
5 -10 11 -10 5 0 8 -4 5 -8 -3 -5 7 -21 23 -36 22 -21 30 -24 34 -13 3 8 -3
24 -13 35 -19 20 -19 21 8 44 15 13 34 42 41 66 12 37 20 45 41 44 147 -8 165
-12 186 -38 l21 -26 -24 -24 c-13 -14 -23 -32 -21 -41 4 -24 48 -45 65 -32 7
6 17 8 23 4 6 -4 17 -1 25 5 19 16 73 3 85 -21 9 -16 7 -19 -13 -19 -12 0 -29
6 -36 13 -11 10 -13 9 -9 -3 3 -8 13 -16 24 -18 10 -2 34 -15 52 -30 l32 -27
-67 -1 c-38 -1 -58 0 -45 3 27 5 30 23 3 23 -10 0 -25 8 -32 17 -10 11 -10 14
-1 9 6 -4 12 -3 12 2 0 5 -12 9 -27 8 -16 0 -41 3 -56 7 -18 5 -26 4 -23 -2 4
-5 -7 -18 -24 -27 -37 -23 -45 -43 -23 -60 18 -13 42 -20 30 -8 -11 11 39 44
66 44 22 0 37 -16 37 -41 0 -5 -10 -9 -21 -9 -18 0 -19 2 -9 15 18 21 6 29
-27 18 -31 -11 -39 -40 -9 -35 17 3 17 2 -2 -18 -14 -16 -27 -20 -42 -15 -12
4 -27 1 -36 -5 -8 -7 -27 -10 -44 -6 -22 4 -30 2 -30 -9 0 -7 4 -16 10 -20 6
-3 6 -15 0 -29 -13 -36 -2 -38 43 -5 29 21 51 29 83 29 39 0 42 -2 36 -22 -5
-20 -4 -21 11 -10 13 11 14 17 4 33 -6 10 -15 19 -19 19 -5 0 -8 4 -8 9 0 12
79 31 86 20 3 -5 11 -9 17 -9 8 0 8 3 -2 9 -7 5 -9 11 -4 14 5 3 17 -3 26 -14
21 -24 39 -25 30 -1 -6 14 -4 15 8 5 21 -17 105 -27 114 -13 5 8 10 8 21 -1
25 -21 -29 -52 -95 -54 -90 -4 -134 -12 -147 -29 -6 -9 -16 -16 -23 -16 -15 0
-51 -37 -43 -44 13 -14 -33 -4 -115 23 -55 19 -90 26 -94 20 -7 -11 -71 -3
-101 13 -22 11 -74 -10 -113 -46 l-30 -27 -7 27 c-4 15 -5 31 -2 35 3 5 -7 11
-21 15 -18 4 -44 -3 -88 -24 -34 -16 -64 -26 -67 -22 -3 5 -21 11 -41 15 -27
5 -46 1 -74 -14 -44 -23 -56 -20 -32 7 24 26 12 32 -36 17 -34 -10 -46 -10
-60 0 -23 16 -21 27 7 58 26 28 24 37 -10 37 -14 0 -25 -8 -29 -20 -13 -42
-56 -80 -96 -86 -22 -4 -42 -10 -45 -15 -2 -4 -11 -6 -18 -3 -17 7 -112 -79
-119 -108 -4 -16 8 -7 41 30 26 30 51 50 55 46 4 -4 7 -21 7 -39 0 -23 -11
-42 -40 -73 -45 -47 -52 -49 -74 -26 -15 14 -18 11 -40 -39 -14 -30 -28 -72
-31 -93 -7 -37 -7 -38 10 -19 16 20 16 19 11 -7 -4 -19 -1 -30 10 -36 8 -5 19
-26 24 -46 7 -33 6 -39 -11 -43 -28 -8 -25 -67 4 -107 13 -17 27 -38 32 -46 8
-13 7 -13 -8 -1 -12 9 -17 10 -17 2 0 -7 -5 -9 -12 -4 -7 4 2 -12 20 -35 19
-23 39 -45 45 -49 7 -4 6 1 -2 10 -12 15 -11 17 9 17 19 0 21 2 9 16 -20 25
-19 44 2 44 10 0 19 6 19 13 0 6 15 -3 32 -22 29 -32 30 -35 12 -41 -10 -4
-25 -5 -31 -3 -17 7 -16 -9 0 -32 10 -12 16 -14 21 -7 4 7 13 12 20 12 17 0
71 -50 71 -66 0 -6 12 -26 27 -42 27 -31 54 -34 86 -9 7 5 15 7 19 3 3 -3 14
1 23 9 26 23 113 24 138 2 11 -10 32 -19 46 -21 15 -2 32 -8 38 -14 15 -15 51
-15 65 -1 33 33 197 25 233 -11 27 -27 70 -27 70 0 0 11 -5 20 -11 20 -5 0 -7
5 -4 10 3 6 -1 10 -9 10 -9 0 -16 -4 -16 -9 0 -4 -11 -6 -25 -3 -14 2 -22 8
-19 13 2 5 -3 20 -12 34 l-16 25 35 0 c20 0 39 4 42 10 3 5 12 10 19 10 16 0
28 -48 14 -52 -5 -2 -6 -11 -3 -21 5 -13 11 -14 25 -7 29 15 59 12 87 -10 l26
-20 -51 0 c-28 0 -53 -3 -55 -7 -8 -15 12 -53 28 -53 10 0 15 -7 13 -17 -4
-21 38 -31 55 -14 31 31 51 -7 21 -40 -21 -23 -12 -35 30 -43 18 -4 41 -15 51
-26 10 -11 24 -20 30 -20 7 0 18 -7 25 -15 7 -8 25 -15 41 -15 16 0 37 -9 48
-21 16 -17 26 -20 48 -14 21 6 23 9 11 12 -30 7 -20 23 11 17 36 -7 51 13 19
25 -21 9 -20 10 12 10 20 1 41 -4 46 -9 13 -13 64 7 64 25 0 6 14 15 32 20 17
6 33 16 36 23 5 17 -29 15 -55 -3 -21 -15 -23 -14 -29 11 -6 22 -11 25 -35 22
-37 -6 -37 5 0 31 20 15 37 19 62 15 40 -7 88 23 74 46 -8 12 -60 10 -97 -5
-19 -8 -62 30 -52 46 4 7 38 9 95 6 78 -4 92 -3 114 15 14 11 25 29 25 40 0
13 5 18 14 15 22 -9 80 23 68 35 -7 7 -7 16 1 29 16 25 2 35 -29 20 -19 -8
-24 -16 -19 -29 4 -12 3 -14 -5 -6 -14 14 23 117 51 145 11 11 19 24 19 29 0
6 6 10 14 10 8 0 28 12 45 26 24 20 31 34 31 60 0 19 4 42 9 52 6 9 19 54 31
100 18 69 19 86 8 99 -7 8 -12 25 -13 37 0 14 -7 22 -22 24 -16 2 -23 10 -23
25 0 12 -11 39 -25 59 -14 20 -25 44 -25 52 0 8 -10 17 -22 21 -41 11 -68 28
-68 42 0 7 5 13 12 13 6 0 -1 14 -17 30 -33 34 -44 73 -19 63 14 -5 15 -3 5
15 -7 14 -19 19 -37 17 -21 -2 -25 1 -21 17 6 23 -1 48 -13 48 -5 0 -34 25
-65 55 -32 30 -51 55 -42 55 8 0 20 -7 27 -15 15 -18 35 -20 24 -3 -4 7 -3 8
5 4 6 -4 10 -10 8 -14 -2 -4 7 -18 20 -31 22 -23 23 -24 23 -3 0 31 -15 64
-43 95 -15 15 -21 27 -15 27 7 0 -1 14 -17 30 -16 17 -35 30 -42 30 -7 0 -13
5 -13 11 0 12 -49 56 -99 86 -28 18 -52 23 -111 24 -58 1 -67 3 -40 9 58 11
-22 29 -97 22z m202 -82 c-3 -5 -10 -10 -16 -10 -5 0 -9 5 -9 10 0 6 7 10 16
10 8 0 12 -4 9 -10z m-95 -10 c0 -5 -4 -10 -9 -10 -6 0 -13 5 -16 10 -3 6 1
10 9 10 9 0 16 -4 16 -10z m-104 -62 c1 -16 -2 -28 -9 -29 -7 0 -21 -2 -32 -4
-29 -6 -55 4 -55 22 0 11 -6 14 -25 9 -15 -4 -25 -2 -25 4 0 17 42 29 94 27
45 -2 49 -4 52 -29z m269 22 c3 -6 -1 -7 -9 -4 -18 7 -21 14 -7 14 6 0 13 -4
16 -10z m-445 -15 c0 -17 -104 -68 -129 -63 -28 6 -22 27 16 52 43 30 113 36
113 11z m225 -35 c-3 -5 -11 -10 -16 -10 -6 0 -7 5 -4 10 3 6 11 10 16 10 6 0
7 -4 4 -10z m339 -6 c5 -14 4 -15 -9 -4 -17 14 -19 20 -6 20 5 0 12 -7 15 -16z
m-218 -36 c-10 -5 -20 -7 -23 -4 -4 3 -1 6 7 6 10 0 10 3 -1 17 -13 15 -12 15
10 3 22 -11 23 -13 7 -22z m164 -17 c0 -12 -29 -23 -42 -15 -6 4 -5 10 3 15
18 11 39 11 39 0z m-148 -62 c34 -33 35 -41 6 -37 -15 2 -22 9 -20 19 1 10
-11 23 -33 33 -42 20 -44 25 -8 18 15 -3 40 -18 55 -33z m101 14 c-7 -2 -19
-2 -25 0 -7 3 -2 5 12 5 14 0 19 -2 13 -5z m72 -23 c3 -5 -1 -10 -10 -10 -9 0
-13 5 -10 10 3 6 8 10 10 10 2 0 7 -4 10 -10z m4 -104 c-3 -3 -11 5 -18 17
-13 21 -12 21 5 5 10 -10 16 -20 13 -22z m79 -22 c2 -20 0 -25 -6 -16 -5 8
-18 12 -28 10 -14 -3 -18 -11 -16 -32 3 -23 0 -27 -13 -22 -9 3 -23 6 -31 6
-22 0 -16 13 15 35 16 10 29 22 29 25 -2 22 5 29 25 26 16 -2 23 -11 25 -32z
m-243 -194 c-3 -5 -17 -10 -31 -10 -14 0 -22 4 -19 10 3 6 17 10 31 10 14 0
22 -4 19 -10z m-432 -37 c50 -37 77 -55 106 -69 7 -4 22 -2 33 5 15 9 26 9 49
-1 16 -7 29 -15 29 -18 -1 -18 -22 -26 -75 -28 -74 -4 -117 10 -108 34 4 12 3
15 -5 10 -7 -4 -19 -3 -29 2 -11 7 -21 5 -31 -5 -8 -8 -27 -17 -43 -20 -16 -3
-29 -9 -29 -14 0 -5 -20 -9 -44 -9 -35 0 -47 5 -60 24 -21 32 -2 39 39 14 39
-23 69 -24 33 0 -21 14 -24 20 -15 32 16 20 86 80 94 80 3 0 28 -17 56 -37z
m481 1 c30 -12 18 -34 -16 -32 -47 2 -54 9 -27 24 29 16 24 15 43 8z m-714
-22 c0 -14 -9 -18 -42 -18 l-42 -2 23 19 c30 24 61 25 61 1z m544 9 c4 -5 -3
-7 -14 -4 -23 6 -26 13 -6 13 8 0 17 -4 20 -9z m96 -13 c0 -6 -7 -7 -16 -4 -9
3 -25 6 -37 7 -21 0 -21 1 -2 8 23 9 55 3 55 -11z m-1000 -18 c16 -29 -3 -56
-43 -64 -18 -3 -51 -15 -72 -26 -50 -26 -59 -25 -78 4 -15 22 -14 25 11 45 14
11 39 21 54 21 15 0 42 9 60 20 41 25 55 25 68 0z m190 -5 c14 -8 35 -14 46
-15 12 0 27 -7 34 -15 7 -8 21 -15 31 -15 11 0 38 -20 62 -44 39 -41 41 -45
22 -50 -38 -11 -96 -6 -126 10 -17 8 -33 13 -35 11 -3 -3 -21 -1 -41 3 -27 6
-42 4 -60 -7 -22 -15 -25 -14 -46 4 -12 11 -33 26 -46 33 -13 7 -19 15 -14 19
6 3 14 21 18 38 6 32 8 33 45 27 23 -4 40 -2 44 5 10 15 36 13 66 -4z m-226
-93 c3 -5 -8 -9 -25 -10 -16 0 -27 4 -24 9 8 11 42 12 49 1z m-154 -22 c0 -5
-4 -10 -10 -10 -5 0 -10 5 -10 10 0 6 5 10 10 10 6 0 10 -4 10 -10z m1740 -16
c0 -8 -4 -14 -10 -14 -5 0 -10 9 -10 21 0 11 5 17 10 14 6 -3 10 -13 10 -21z
m-970 -32 c0 -22 -44 -46 -77 -43 -22 2 -1 31 22 31 13 0 27 5 30 10 8 12 25
13 25 2z m-880 -61 c0 -16 -7 -35 -17 -42 -15 -13 -15 -12 -5 8 15 26 15 33 2
33 -5 0 -16 -12 -25 -27 l-16 -28 6 30 c13 58 55 78 55 26z m150 20 c0 -5 -9
-13 -20 -16 -11 -3 -20 -11 -20 -16 0 -14 28 -11 33 4 3 6 6 2 6 -10 1 -24
-23 -53 -44 -53 -21 0 -45 11 -45 22 0 5 5 6 12 2 7 -5 8 -3 3 5 -4 8 4 24 21
42 27 28 54 38 54 20z m124 -10 c13 -15 14 -20 4 -23 -7 -3 -18 2 -25 11 -26
33 -7 44 21 12z m1203 -51 c2 -32 -16 -80 -31 -80 -19 1 -45 25 -55 53 -9 24
-8 27 9 27 12 0 20 7 20 16 0 11 8 14 28 12 21 -2 27 -9 29 -28z m-1267 4 c0
-8 -4 -12 -10 -9 -5 3 -10 10 -10 16 0 5 5 9 10 9 6 0 10 -7 10 -16z m258 -10
c-15 -15 -18 -15 -39 0 -23 16 -23 16 16 16 36 0 38 -1 23 -16z m1322 1 c0
-16 -27 -32 -37 -22 -3 4 -3 13 0 22 8 20 37 20 37 0z m-112 -157 c-3 -23 -10
-25 -66 -12 -13 2 -20 9 -16 15 3 6 12 8 20 5 7 -3 16 -1 19 4 4 6 15 10 26
10 15 0 20 -6 17 -22z m-1708 -38 c0 -5 -5 -10 -11 -10 -5 0 -7 5 -4 10 3 6 8
10 11 10 2 0 4 -4 4 -10z m1553 -9 c3 -14 1 -18 -9 -14 -7 3 -27 -5 -44 -17
-29 -21 -38 -18 -22 7 6 9 59 43 68 43 1 0 4 -9 7 -19z m-79 -76 c3 -8 17 -15
31 -15 15 0 24 -4 20 -10 -7 -12 -65 -13 -83 -2 -15 10 -5 42 13 42 7 0 15 -7
19 -15z m-1150 -61 c3 -8 -1 -14 -9 -14 -9 0 -12 6 -8 15 4 11 -4 19 -26 28
-17 6 -31 17 -31 25 0 16 65 -31 74 -54z m472 45 c3 -6 1 -16 -5 -22 -9 -9
-14 -8 -21 3 -5 8 -10 18 -10 23 0 11 28 8 36 -4z m824 1 c0 -5 -4 -10 -10
-10 -5 0 -10 5 -10 10 0 6 5 10 10 10 6 0 10 -4 10 -10z m52 -15 c-2 -11 -12
-29 -23 -41 -24 -26 -24 -40 1 -47 29 -8 25 -23 -16 -47 -39 -25 -46 -23 -50
19 -4 29 20 63 62 87 17 10 17 15 6 34 -12 19 -11 21 5 18 12 -2 17 -11 15
-23z m-1037 -25 c3 -5 2 -10 -4 -10 -5 0 -13 5 -16 10 -3 6 -2 10 4 10 5 0 13
-4 16 -10z m-266 -37 c5 -10 24 -23 43 -29 22 -8 26 -13 13 -13 -11 0 -49 10
-85 23 -64 24 -65 24 -30 28 19 3 38 6 42 6 4 1 11 -6 17 -15z m100 1 c2 -2 2
-7 -2 -10 -3 -3 -16 2 -29 11 l-23 17 25 -7 c14 -4 27 -9 29 -11z m151 -41
c80 -7 93 -7 112 1 11 5 20 1 27 -12 9 -18 6 -20 -45 -26 -41 -5 -60 -2 -79
10 -14 9 -32 13 -42 9 -17 -6 -17 -7 1 -21 19 -14 19 -14 -1 -14 -12 0 -25 -4
-28 -10 -7 -11 -85 29 -85 43 0 5 9 11 20 14 11 3 17 10 13 16 -4 6 4 7 23 2
16 -4 54 -10 84 -12z m595 -13 c20 -22 85 -28 85 -8 0 6 3 8 7 5 3 -4 -4 -18
-16 -31 l-23 -24 21 -12 c12 -6 18 -16 15 -22 -4 -6 -3 -8 3 -5 5 4 23 -7 39
-24 24 -25 34 -29 61 -24 17 3 34 2 37 -3 7 -12 -42 -22 -106 -22 -27 0 -65
-7 -85 -15 -41 -17 -79 -19 -88 -5 -3 6 5 10 19 10 42 0 38 17 -7 25 -23 4
-51 8 -63 8 -20 2 -20 4 -6 25 16 25 28 28 35 8 8 -20 43 -25 72 -10 29 15 47
11 39 -9 -3 -8 5 -13 21 -15 19 -1 25 3 25 18 0 12 -8 23 -17 27 -26 9 -53 34
-48 44 6 8 -27 21 -42 17 -6 -2 -21 11 -35 27 l-26 30 33 2 c22 2 38 -4 50
-17z m190 -90 c8 -13 -45 -13 -65 0 -11 7 -6 10 22 10 20 0 40 -4 43 -10z
m-77 -127 c2 -8 -6 -13 -22 -13 -26 0 -40 12 -29 24 11 11 46 2 51 -11z"/>
<path d="M1350 2120 c0 -5 5 -10 11 -10 5 0 7 5 4 10 -3 6 -8 10 -11 10 -2 0
-4 -4 -4 -10z"/>
<path d="M1220 1530 c0 -5 5 -10 11 -10 5 0 7 5 4 10 -3 6 -8 10 -11 10 -2 0
-4 -4 -4 -10z"/>
<path d="M416 1524 c-7 -17 0 -34 13 -34 5 0 9 11 9 25 0 28 -13 33 -22 9z"/>
<path d="M820 1501 c0 -16 8 -35 17 -42 15 -13 16 -11 10 11 -4 14 -7 33 -7
43 0 9 -4 17 -10 17 -5 0 -10 -13 -10 -29z"/>
<path d="M724 1505 c-16 -12 -16 -14 -3 -15 9 0 22 7 29 15 16 19 0 19 -26 0z"/>
<path d="M1258 2253 c-21 -2 -38 -9 -38 -15 0 -5 -6 -8 -12 -5 -15 5 -63 -11
-55 -19 3 -3 24 0 47 6 23 6 49 8 59 4 9 -4 46 -9 82 -10 61 -1 66 0 62 17 -4
14 -14 19 -37 18 -17 -1 -40 1 -51 3 -11 3 -37 3 -57 1z"/>
<path d="M1106 2201 c-3 -5 0 -11 8 -14 15 -6 26 1 26 15 0 11 -27 10 -34 -1z"/>
<path d="M851 2027 c-6 -8 -8 -17 -4 -20 3 -4 -6 -7 -20 -7 -15 0 -27 -4 -27
-9 0 -5 -12 -12 -26 -15 -15 -4 -44 -25 -66 -47 -21 -21 -43 -39 -47 -39 -12
0 -19 -46 -10 -62 9 -14 13 -5 9 27 -2 16 0 17 13 6 12 -10 24 -10 57 0 29 9
44 9 51 2 23 -23 -30 -59 -96 -65 -52 -5 -59 -32 -19 -65 25 -20 27 -25 16
-43 -16 -25 -15 -30 2 -30 8 0 17 9 21 19 3 11 32 34 63 52 58 33 60 54 2 24
-17 -9 -35 -13 -40 -10 -21 13 -8 32 43 58 44 24 52 32 53 57 2 64 52 79 100
31 32 -32 54 -31 54 4 0 14 7 25 20 28 11 3 20 10 20 16 0 20 -28 23 -61 7
-40 -20 -63 -20 -78 -2 -10 11 -5 20 26 42 60 44 60 45 9 38 -36 -5 -47 -4
-42 4 10 17 -9 15 -23 -1z m-41 -87 c0 -5 -4 -10 -10 -10 -5 0 -10 5 -10 10 0
6 5 10 10 10 6 0 10 -4 10 -10z m-60 -16 c0 -8 -4 -12 -10 -9 -5 3 -10 10 -10
16 0 5 5 9 10 9 6 0 10 -7 10 -16z"/>
<path d="M1012 1893 c5 -24 25 -27 31 -3 4 15 0 20 -15 20 -13 0 -18 -6 -16
-17z"/>
<path d="M1305 1900 c3 -5 11 -10 16 -10 6 0 7 5 4 10 -3 6 -11 10 -16 10 -6
0 -7 -4 -4 -10z"/>
<path d="M1195 1890 c3 -5 11 -10 16 -10 6 0 7 5 4 10 -3 6 -11 10 -16 10 -6
0 -7 -4 -4 -10z"/>
<path d="M576 1836 c-11 -6 -37 -26 -58 -45 -21 -19 -52 -42 -68 -52 -26 -16
-41 -39 -25 -39 17 0 75 36 75 47 0 11 45 48 96 79 10 6 14 13 8 16 -5 3 -18
1 -28 -6z"/>
<path d="M936 1834 c-11 -7 -16 -17 -13 -21 4 -4 15 1 24 10 22 21 14 30 -11
11z"/>
<path d="M1090 1830 c-9 -6 -10 -10 -3 -10 6 0 15 5 18 10 8 12 4 12 -15 0z"/>
<path d="M995 1795 c-5 -2 -22 -6 -37 -9 -28 -6 -37 -29 -18 -41 5 -3 26 -2
45 4 29 8 43 5 82 -14 41 -21 50 -23 72 -12 14 7 25 20 25 29 -1 10 4 14 12
11 8 -3 14 -1 14 5 0 5 -10 9 -22 8 -13 -1 -22 -7 -20 -14 1 -7 -5 -12 -14
-12 -8 0 -12 5 -9 10 13 21 -90 49 -130 35z"/>
<path d="M850 1772 c0 -14 39 -46 47 -39 3 4 -2 16 -12 27 -19 21 -35 26 -35
12z"/>
<path d="M860 1690 c-14 -11 -20 -20 -14 -20 6 0 19 9 29 20 23 25 17 25 -15
0z"/>
<path d="M1378 1683 c-16 -2 -28 -9 -28 -14 0 -15 36 -10 50 6 7 8 11 14 9 14
-2 -1 -16 -4 -31 -6z"/>
<path d="M2060 1651 c0 -13 53 -92 58 -86 5 4 -46 95 -53 95 -3 0 -5 -4 -5 -9z"/>
<path d="M150 1156 c-12 -20 -19 -42 -17 -49 3 -7 6 -4 6 6 1 10 5 16 10 13 9
-6 35 53 27 61 -2 2 -14 -12 -26 -31z"/>
<path d="M280 980 c0 -5 5 -10 11 -10 5 0 7 5 4 10 -3 6 -8 10 -11 10 -2 0 -4
-4 -4 -10z"/>
<path d="M330 882 c0 -14 46 -53 53 -45 4 3 -3 17 -15 30 -22 23 -38 30 -38
15z"/>
<path d="M660 812 c0 -4 14 -16 30 -25 25 -15 30 -16 30 -4 0 8 -13 20 -30 26
-16 5 -30 7 -30 3z"/>
<path d="M620 780 c0 -16 -7 -20 -32 -20 -18 0 -28 -4 -22 -8 11 -11 85 -32
109 -32 10 0 26 -6 34 -14 15 -13 40 -20 69 -17 10 1 10 6 2 21 -7 13 -26 22
-51 26 -26 4 -53 18 -70 35 -35 34 -39 35 -39 9z"/>
<path d="M900 770 c0 -13 34 -30 59 -30 26 0 27 16 2 30 -25 13 -61 13 -61 0z"/>
<path d="M782 758 c3 -7 20 -14 39 -16 32 -2 33 -1 15 13 -24 18 -59 20 -54 3z"/>
<path d="M1000 745 c-14 -17 -5 -35 16 -35 8 0 13 -4 9 -9 -7 -12 26 -31 54
-31 24 0 28 18 6 27 -13 4 -12 8 6 21 21 15 21 16 4 29 -25 17 -79 17 -95 -2z"/>
<path d="M620 706 c0 -2 8 -10 18 -17 15 -13 16 -12 3 4 -13 16 -21 21 -21 13z"/>
<path d="M845 702 c-22 -23 15 -63 40 -42 7 5 27 7 46 4 30 -6 32 -5 19 8 -16
17 -96 39 -105 30z"/>
<path d="M750 641 c0 -14 29 -41 46 -41 21 0 17 6 -16 30 -16 12 -30 17 -30
11z"/>
<path d="M966 612 c-7 -12 48 -52 71 -52 10 0 37 -7 61 -15 39 -14 45 -14 59
1 9 8 23 13 32 10 55 -17 64 -19 58 -9 -4 6 -19 14 -34 18 -14 3 -38 15 -51
26 -18 14 -27 16 -33 8 -4 -7 -16 -9 -27 -6 -12 2 -23 0 -25 -7 -3 -7 -18 -4
-45 12 -44 24 -58 27 -66 14z"/>
<path d="M900 582 c0 -14 35 -42 53 -42 34 0 13 31 -30 44 -13 4 -23 3 -23 -2z"/>
<path d="M1000 540 c0 -12 28 -25 36 -17 3 3 -4 10 -15 17 -15 7 -21 7 -21 0z"/>
<path d="M1100 511 c0 -10 25 -21 48 -21 12 1 10 5 -8 15 -29 17 -40 18 -40 6z"/>
<path d="M1510 490 c-12 -8 -11 -10 8 -10 12 0 22 5 22 10 0 13 -11 13 -30 0z"/>
</g>
</svg>
