<svg xmlns="http://www.w3.org/2000/svg" width="55" height="55" viewBox="0 0 55 55"><g><g><path fill="#262626" d="M46.115 18.531c-.504-.78-1.086-1.5-1.758-2.172l-4.873-4.871a13.365 13.365 0 0 0-2.172-1.752c.702-1.578 2.082-4.92 2.634-7.89.192-1.031 1.53-1.325 2.148-.48 1.056 1.452 2.1 3.319 1.789 4.716l7.224-2.897c.978-.396 1.957.582 1.56 1.56l-2.904 7.216c1.398-.311 3.265.733 4.717 1.788.852.618.552 1.956-.48 2.148-2.97.552-6.313 1.932-7.885 2.634zm-3.943 15.166l-10.279-5.885 5.16 9.01-18.805 10.566-6.745-3.636 3.072 5.7-9.15 5.141a3.125 3.125 0 0 1-1.519.408c-2.148 0-3.894-2.388-2.658-4.59L13.02 29.468l8.347 5.063-5.808-9.575 5.352-9.509c2.01-3.576 5.67-5.477 9.373-5.477a10.65 10.65 0 0 1 7.573 3.144l4.872 4.871c4.5 4.506 4.039 11.74-.558 15.712z"/></g></g></svg>