<svg xmlns="http://www.w3.org/2000/svg" width="47" height="44" viewBox="0 0 47 44"><g><g><path d="M45.563 8.279l-3.76 15.68a1.658 1.658 0 0 1-1.613 1.27H19.887c-.72 0-1.36-.465-1.579-1.153L13.317 8.469a2.67 2.67 0 0 1 .385-2.385 2.669 2.669 0 0 1 2.153-1.093h27.117a2.666 2.666 0 0 1 2.591 3.288zm1.287 22.333a2.427 2.427 0 0 1-2.427 2.429H18.236a6.969 6.969 0 0 1-6.65-4.845L4.378 5.844a.236.236 0 0 0-.225-.164H2.577a2.428 2.428 0 1 1 0-4.857h1.576a5.077 5.077 0 0 1 4.845 3.532l7.209 22.352a2.127 2.127 0 0 0 2.03 1.477h26.186a2.428 2.428 0 0 1 2.427 2.428zM23.828 39.71a3.87 3.87 0 1 1-7.742 0 3.872 3.872 0 1 1 7.742 0zm20.33 0a3.87 3.87 0 1 1-7.742 0 3.872 3.872 0 0 1 3.87-3.873 3.872 3.872 0 0 1 3.871 3.873z"/></g></g></svg>