<svg xmlns="http://www.w3.org/2000/svg" width="55" height="49" viewBox="0 0 55 49"><g><g><path fill="#262626" d="M28.567 19.55c-.061.077-.135.135-.2.204.037-.794.05-1.6.02-2.415.004-.718-.097-1.433-.16-2.136-.064-.701-.242-1.382-.351-2.042-.168-.653-.374-1.273-.548-1.858l-.71-1.583-.787-1.23c-.208-.384-.525-.619-.718-.86-.417-.456-.658-.714-.658-.714l.606.76c.173.252.465.503.643.898.203.376.432.8.683 1.26.178.492.37 1.025.577 1.59.125.585.283 1.198.4 1.839.057.651.181 1.314.193 2.002.013.684.06 1.377.003 2.075-.023.992-.14 1.968-.276 2.922-.536-.427-2.014-2.108-2.669-2.834a17.084 17.084 0 0 1-2.02-2.809c-.615-1.026-1.067-2.14-1.418-3.257-.707-2.243-.75-4.519-.584-6.466.091-.989.166-1.894.133-2.643-.034-.34-.04-.71-.088-.925-.045-.227-.074-.348-.074-.348l.345-.115c.222-.06.602-.179 1.031-.163.883-.029 2.144.258 3.363.919 1.218.661 2.38 1.67 3.293 2.867.942 1.188 1.616 2.58 2.053 4.005.422 1.432.617 2.905.514 4.32a11.966 11.966 0 0 1-.878 3.92c-.498 1.161-1.114 2.139-1.718 2.818zm-5.077 2.095c.017-.093.013-.185.017-.276-.375-.47-.77-.937-1.192-1.386-.355-.41-.77-.767-1.154-1.135-.387-.37-.826-.668-1.217-.99-.42-.288-.847-.541-1.238-.787l-1.194-.548c-.39-.114-.746-.22-1.061-.31-.31-.113-.605-.092-.837-.134l-.73-.077.722.13c.226.059.515.057.813.192.302.114.644.24 1.017.377l1.118.619c.365.27.76.541 1.146.85.358.342.759.658 1.108 1.043.347.386.72.756 1.035 1.182.482.577.902 1.19 1.299 1.8-.517.027-2.197-.196-2.933-.283-.818-.107-1.699-.297-2.55-.593-.862-.28-1.675-.688-2.43-1.148-1.523-.927-2.679-2.202-3.555-3.393-.44-.608-.848-1.16-1.24-1.571-.187-.178-.375-.386-.51-.484l-.215-.162s.049-.083.138-.24c.098-.143.256-.399.507-.604.488-.456 1.353-.92 2.376-1.152 1.023-.231 2.188-.234 3.305-.007 1.13.208 2.204.665 3.164 1.259.955.606 1.797 1.349 2.444 2.208a9.004 9.004 0 0 1 1.452 2.668c.297.911.433 1.772.425 2.46.004.074-.01.144-.012.215.462.584.871 1.16 1.25 1.725a15.253 15.253 0 0 1 2.28-.176c.093 0 .18.02.274.022.108-.497.212-1.005.306-1.541.06-.369.322-1.27.495-1.385.098-.08.172-.173.257-.26a37.043 37.043 0 0 1-.307 3.244c.267.019.538.029.802.062.429-.652.915-1.337 1.457-2.018.003.092 0 .183.016.278.04.151-.258.795-.406 1.034-.161.262-.3.515-.445.768 5.32.87 9.707 4.516 11.624 9.405a67.325 67.325 0 0 0-1.031-.683c-2.696-1.758-6.033-1.9-9.832-.379-1.32.53-2.62.601-3.891.22-2.41-.73-4.794-.798-7.047-.805-1.501 0-2.743.598-3.598 1.728-.215.28-.335.615-.359.96-1.16-.206-1.837-.313-2.281-.316l-.357-.045c1.726-5.101 6.094-8.981 11.477-10.009-.1-.173-.189-.34-.296-.516-.15-.24-.446-.882-.406-1.036zm8.024-1.99c-.422.451-.817.916-1.192 1.386-.004-.07-.016-.142-.013-.215-.007-.69.129-1.551.425-2.461a9.086 9.086 0 0 1 1.45-2.668c.648-.86 1.493-1.602 2.446-2.208.96-.596 2.034-1.051 3.163-1.26 1.12-.227 2.282-.222 3.305.007 1.025.232 1.886.697 2.375 1.153.252.204.407.461.506.605l.139.241-.216.16c-.134.098-.322.307-.51.483-.39.411-.8.964-1.24 1.573-.877 1.19-2.032 2.465-3.554 3.392-.754.459-1.572.87-2.43 1.147-.853.295-1.733.486-2.553.593-.735.088-2.413.311-2.932.287.4-.611.818-1.227 1.298-1.804.316-.426.69-.797 1.038-1.18.348-.387.748-.702 1.109-1.044.383-.308.776-.58 1.144-.85l1.118-.619c.372-.137.714-.266 1.018-.377.297-.136.587-.134.81-.192l.726-.13s-.266.027-.732.078c-.23.04-.527.019-.836.133-.316.092-.673.198-1.063.31l-1.193.548c-.39.249-.818.498-1.237.786-.39.324-.83.622-1.218.99-.385.369-.801.726-1.15 1.136zM54.33 48.272l-13.548.027c-2.167-3.709-5.365-5.396-9.577-5.377-2.401.015-4.801-.08-7.196.028-2.11.095-4.073-.22-5.92-1.259-.869-.49-1.85-.652-2.813-.871-2.332-.528-4.607-1.231-6.942-1.808-3.283-.81-4.063-1.28-6.484-2.238-.396-.157-.88-.03-1.07-.52-.18-.47-.207-.963.13-1.366.587-.696 1.18-1.031 2.233-.97a.468.468 0 0 0 .236-.033c1.893-1.069 1.89-.344 3.814-.186l5.413.693c.954-.071 8.11 1.664 8.52.844-2.213 0-4.794-1.727-4.479-2.142.564-.745 1.351-1.077 2.299-1.074 2.21.007 4.388.078 6.555.732 1.624.493 3.295.412 4.985-.265 2.757-1.103 5.719-1.463 8.318.228 3.203 2.086 6.242 4.435 8.566 7.587 2.7 3.67 4.005 4.509 6.96 7.97z"/></g></g></svg>